<svg xmlns="http://www.w3.org/2000/svg" width="643" height="406" fill="none" xmlns:v="https://vecta.io/nano"><style><![CDATA[.B{fill:#fff}.C{fill:#2f2e41}.D{fill:#e6e6e6}.E{fill:#ffb8b8}.F{fill:#3f3d56}.G{fill:#397ef6}.H{fill:#ffb6b6}.I{fill:#f2f2f2}]]></style><g clip-path="url(#A)"><g class="D"><path d="M381.542 12.455c46.289-24.8 105.039-11.799 136.187 32.176l-1.06.753c-30.763-43.432-88.795-56.27-134.515-31.781-3.884 2.081-7.634 4.405-11.226 6.958-47.016 33.391-58.136 98.856-24.79 145.935l-1.06.753c-33.761-47.664-22.502-113.944 25.098-147.75a106.28 106.28 0 0 1 11.366-7.045h0z"/><path d="M626.764 118.462l-152.25-11.86a8.95 8.95 0 0 1-6.098-3.109c-1.541-1.804-2.305-4.146-2.124-6.513l6.6-74.071a8.97 8.97 0 0 1 3.105-6.106c1.801-1.543 4.14-2.308 6.504-2.127l152.25 11.86a8.95 8.95 0 0 1 6.098 3.108c1.541 1.804 2.305 4.146 2.124 6.513l-6.601 74.071c-.186 2.367-1.303 4.563-3.104 6.106s-4.14 2.308-6.504 2.127z"/></g><path d="M590.8 101.728c-1.155 0-2.315-.045-3.479-.136l-98.394-7.665a15.01 15.01 0 0 1-5.644-1.588 15.02 15.02 0 0 1-4.608-3.63 15.06 15.06 0 0 1-2.87-5.12c-.611-1.879-.847-3.86-.694-5.83l2.244-28.88a15.07 15.07 0 0 1 5.216-10.261c3.028-2.594 6.959-3.879 10.931-3.574l127.235 9.912c3.972.314 7.657 2.193 10.247 5.224s3.874 6.967 3.569 10.945a44.04 44.04 0 0 1-13.946 28.87 43.93 43.93 0 0 1-29.807 11.734h0z" class="B"/><g class="D"><path d="M617.693 67.915l-124.729-9.716c-.26-.02-.514-.092-.746-.21a1.98 1.98 0 0 1-.608-.48c-.17-.198-.299-.428-.379-.676a1.99 1.99 0 0 1-.092-.77 1.98 1.98 0 0 1 .209-.746c.118-.232.281-.44.479-.609a2 2 0 0 1 .676-.38 1.98 1.98 0 0 1 .769-.092l124.729 9.716a1.98 1.98 0 0 1 .745.21 2 2 0 0 1 .988 1.156 1.97 1.97 0 0 1 .091.77 1.98 1.98 0 0 1-.209.746c-.118.232-.281.44-.479.609a1.98 1.98 0 0 1-.675.379c-.248.081-.509.112-.769.092zm-51.791 3.842l-73.547-5.729a1.98 1.98 0 0 1-1.353-.69 1.99 1.99 0 0 1-.47-1.446c.04-.525.288-1.013.688-1.356a1.98 1.98 0 0 1 1.443-.472l73.547 5.729a1.97 1.97 0 0 1 .746.21c.233.119.439.281.609.48a2 2 0 0 1 .379.676 1.99 1.99 0 0 1-.597 2.127c-.198.17-.428.299-.676.379a1.98 1.98 0 0 1-.769.092h0zm16.201 9.139l-90.356-7.039a1.97 1.97 0 0 1-.746-.21c-.233-.119-.439-.281-.609-.48a1.99 1.99 0 0 1-.471-1.446 1.97 1.97 0 0 1 .21-.747 1.99 1.99 0 0 1 .479-.61c.198-.17.428-.299.676-.379a1.98 1.98 0 0 1 .769-.091l90.356 7.039a1.98 1.98 0 0 1 1.354.69 1.99 1.99 0 0 1-.218 2.802c-.4.343-.919.512-1.444.472h0zm34.473 138.116l-152.25-11.86c-2.364-.187-4.557-1.304-6.098-3.108s-2.305-4.146-2.124-6.513l6.6-74.071c.187-2.367 1.303-4.563 3.105-6.106a8.95 8.95 0 0 1 6.504-2.127l152.25 11.86a8.95 8.95 0 0 1 6.098 3.109c1.541 1.803 2.305 4.146 2.124 6.513l-6.601 74.071a8.97 8.97 0 0 1-3.104 6.106 8.94 8.94 0 0 1-6.504 2.126h0z"/></g><path d="M580.573 202.277a44.73 44.73 0 0 1-3.44-.134l-98.394-7.665c-1.967-.153-3.885-.693-5.644-1.588s-3.325-2.129-4.608-3.631a15.06 15.06 0 0 1-2.87-5.119 15.08 15.08 0 0 1-.694-5.83l2.244-28.879a15.07 15.07 0 0 1 1.586-5.653 15.04 15.04 0 0 1 3.626-4.614c1.499-1.284 3.237-2.261 5.113-2.873a15 15 0 0 1 5.822-.695l127.235 9.911c1.967.153 3.885.693 5.644 1.589s3.325 2.129 4.608 3.63 2.258 3.241 2.87 5.12a15.08 15.08 0 0 1 .694 5.83c-.871 11.038-5.86 21.344-13.974 28.867s-18.759 11.712-29.818 11.734h0z" class="B"/><g class="D"><path d="M607.505 168.466l-124.729-9.717c-.26-.02-.514-.091-.746-.21a1.98 1.98 0 0 1-.608-.479c-.17-.198-.299-.428-.379-.676a1.99 1.99 0 0 1 .117-1.517c.118-.232.281-.44.479-.609a2 2 0 0 1 .676-.38c.248-.081.509-.112.769-.092l124.729 9.717c.259.02.513.091.745.21a2.01 2.01 0 0 1 .609.479 1.98 1.98 0 0 1 .379.676 1.99 1.99 0 0 1-.118 1.517c-.118.232-.281.44-.479.609a1.99 1.99 0 0 1-.675.38c-.248.081-.509.112-.769.092h0zm-51.791 3.842l-73.547-5.729a1.99 1.99 0 0 1-.746-.21c-.232-.118-.439-.281-.609-.479a2 2 0 0 1-.379-.677 1.99 1.99 0 0 1-.092-.77c.02-.26.092-.514.21-.747a1.97 1.97 0 0 1 .479-.609c.198-.17.428-.299.676-.38s.509-.112.769-.091l73.547 5.729a1.98 1.98 0 0 1 1.353.69c.342.4.511.92.47 1.446s-.288 1.012-.688 1.355a1.98 1.98 0 0 1-1.443.472h0zm16.201 9.139l-90.356-7.039c-.525-.041-1.012-.289-1.354-.689a1.99 1.99 0 0 1-.471-1.446c.041-.526.288-1.014.688-1.356s.92-.513 1.445-.472l90.356 7.039c.525.041 1.012.289 1.354.689a1.99 1.99 0 0 1-.217 2.803c-.4.342-.92.512-1.445.471h0zm-342.62-1.135a36.56 36.56 0 0 1-3.093-13.901c-.109-4.792.725-9.559 2.455-14.029a36.5 36.5 0 0 1 7.63-12.019c3.306-3.466 7.262-6.246 11.642-8.182s9.097-2.987 13.883-3.097a36.4 36.4 0 0 1 14.01 2.459 36.43 36.43 0 0 1 12.003 7.639c3.462 3.311 6.238 7.273 8.171 11.658l-1.19.526a35.19 35.19 0 0 0-7.879-11.242 35.13 35.13 0 0 0-11.575-7.367c-4.305-1.671-8.895-2.477-13.51-2.371s-9.165 1.12-13.388 2.987a35.15 35.15 0 0 0-11.227 7.889c-3.189 3.342-5.689 7.281-7.357 11.591s-2.474 8.907-2.368 13.528a35.24 35.24 0 0 0 2.983 13.405l-1.19.526z"/></g><path d="M607.146 383.874c14.884-7.062 25.97-21.271 24.241-36.886-13.353 10.827-31.533 16.872-50.3 16.728-7.31-.057-15.496-.801-20.808 3.306-3.305 2.555-4.796 6.613-4.985 10.658s.791 8.137 1.765 12.177l-.296.957c17.476 1.114 35.499.122 50.383-6.94z" class="I"/><g class="B"><path d="M631.02 346.949c-5.756 11.247-15.737 20.622-28.141 26.109-2.717 1.27-5.611 2.121-8.583 2.525a19.38 19.38 0 0 1-8.928-1.169c-2.695-.968-5.353-2.23-8.211-2.613-1.4-.196-2.825-.107-4.19.262a10.49 10.49 0 0 0-3.752 1.882c-2.642 2.057-4.218 4.904-5.646 7.743-1.585 3.153-3.174 6.455-6.278 8.604-.376.26.147.802.523.542 5.401-3.739 6.181-10.499 10.473-15.027a10.09 10.09 0 0 1 3.67-2.631c1.406-.589 2.927-.851 4.448-.767 2.918.215 5.659 1.514 8.381 2.515a20.8 20.8 0 0 0 8.709 1.431 27.9 27.9 0 0 0 8.688-2.212 59.95 59.95 0 0 0 16.437-10.242 56.09 56.09 0 0 0 13.137-16.698c.199-.389-.539-.64-.737-.254h0z"/><path d="M607.035 371.473a11.65 11.65 0 0 0 6.019 3.764 11.64 11.64 0 0 0 7.084-.429c.433-.182.079-.818-.354-.635a10.78 10.78 0 0 1-6.594.399c-2.185-.561-4.14-1.793-5.59-3.524-.305-.37-.868.056-.565.425h0zm-20.357 3.588c.288-2.196 1.038-4.307 2.199-6.193a15.68 15.68 0 0 1 4.541-4.748c.375-.262-.149-.803-.524-.542a16.31 16.31 0 0 0-4.713 4.95c-1.204 1.965-1.979 4.164-2.273 6.45-.053.436.717.517.77.083h0zm36.46-16.315c-.716-.551-1.279-1.275-1.637-2.105a5.32 5.32 0 0 1-.406-2.637c.06-.435-.71-.515-.77-.083a5.95 5.95 0 0 0 .453 2.913 5.94 5.94 0 0 0 1.795 2.337c.071.069.163.113.262.124s.198-.013.282-.066c.037-.028.066-.064.088-.104a.32.32 0 0 0 .035-.132c.002-.046-.006-.092-.024-.135a.31.31 0 0 0-.078-.112h0z"/></g><path d="M582.28 313.972l-.144.811c-.636 3.617-1.61 7.166-2.906 10.601a24.77 24.77 0 0 1-.301.8 63.88 63.88 0 0 1-14.635 22.12 67.15 67.15 0 0 1-8.37 7.01c-4.147 2.938-8.934 5.81-11.559 9.769-.278.408-.527.836-.745 1.279l11.825 23.958c.056.044.107.091.163.136l.425.972.497-.305c.095-.057.188-.12.284-.177.063-.04.126-.08.186-.113.021-.013.041-.027.057-.038.059-.032.11-.069.164-.099l2.809-1.8c7.102-4.653 13.773-9.901 19.254-15.956.165-.183.336-.366.495-.56a59.78 59.78 0 0 0 6.519-8.78c1.023-1.696 1.948-3.451 2.77-5.255 2.108-4.659 3.357-9.663 3.687-14.767.667-10.226-2.362-20.8-9.893-28.985l-.582-.621z" class="I"/><g class="B"><path d="M581.977 314.135c3.294 12.648 2.159 25.987-3.418 37.338-1.16 2.52-2.757 4.814-4.719 6.775a15.79 15.79 0 0 1-7.474 3.829c-2.673.633-5.515.998-7.915 2.216-1.178.59-2.199 1.451-2.98 2.512a8.37 8.37 0 0 0-1.517 3.594c-.587 3.171.158 6.436 1.009 9.616.944 3.53 1.987 7.188 1.115 10.687-.105.424.653.6.758.177 1.517-6.087-2.47-12.242-2.317-18.4.071-2.873 1.116-5.673 3.781-7.265 2.33-1.392 5.26-1.771 7.975-2.391 2.742-.533 5.313-1.731 7.487-3.488 2.071-1.85 3.771-4.079 5.009-6.566 2.838-5.481 4.662-11.43 5.383-17.561a56.58 56.58 0 0 0-1.453-21.256c-.114-.436-.837-.251-.724.183h0z"/><path d="M580.599 347.885c4.864 1.526 10.025-.3 12.065-4.245.201-.389-.494-.737-.695-.348-1.911 3.696-6.687 5.354-11.234 3.928-.479-.15-.612.516-.136.665h0zm-12.815 14.034c-1.246-1.882-2.096-3.997-2.5-6.218a16.68 16.68 0 0 1 .149-6.702c.104-.424-.654-.601-.758-.177-.518 2.292-.566 4.665-.14 6.976a17.36 17.36 0 0 0 2.616 6.466c.255.398.886.051.633-.345zm16.268-33.522c-.956-.108-1.875-.426-2.694-.931s-1.516-1.183-2.042-1.989c-.249-.4-.88-.053-.632.345a7.33 7.33 0 0 0 5.231 3.24c.21.025.405-.049.447-.244.012-.097-.014-.194-.071-.273s-.144-.131-.239-.148h0z"/></g><path d="M607.383 213.77l-9.047-48.223-17.759-23.406-13.161 8.616c1.86 10.1 15.927 28.955 15.927 28.955l12.469 37.295a6.64 6.64 0 0 0-.129.59c-.198 1.18-.089 2.391.318 3.516s1.095 2.126 2.001 2.907 1.997 1.314 3.168 1.548a6.94 6.94 0 0 0 3.52-.208 6.95 6.95 0 0 0 4.608-5.035c.271-1.166.237-2.381-.099-3.529a6.95 6.95 0 0 0-1.816-3.026h0z" class="E"/><path d="M567.77 155.852l14.9-12.11.028-.064c2.787-6.324-3.401-17.166-9.082-25.149-1.876-2.63-4.679-4.45-7.843-5.09a12.72 12.72 0 0 0-9.201 1.641 12.78 12.78 0 0 0-4.694 5.209 12.81 12.81 0 0 0-1.241 6.905l1.254 12.08 15.879 16.578z" class="F"/><path d="M515.109 395.838l-9.915-.001-4.716-38.291 14.633.001-.002 38.291z" class="E"/><path d="M517.638 392.596h-2.791l-10.894-4.436-5.84 4.436h0a12.43 12.43 0 0 0-8.798 3.649c-2.334 2.336-3.645 5.505-3.645 8.809v.405l31.967.002.001-12.865z" class="C"/><path d="M559.099 395.838l-9.914-.001-4.716-38.291 14.632.001-.002 38.291z" class="E"/><g class="C"><path d="M561.628 392.596h-2.79l-10.895-4.436-5.839 4.436h-.001a12.43 12.43 0 0 0-8.798 3.649c-2.333 2.336-3.644 5.505-3.644 8.809v.405l31.967.002v-12.865zm12.588-161.691s1.158 13.91-1.736 27.241-2.894 50.874-2.894 50.874l-6.367 73.159-19.101-1.739-5.21-122.294-18.522 41.151 1.736 5.796-2.313 1.449s1.735 11.302.577 11.302-4.052 1.739-4.052 1.739l2.315 59.698-19.68-.58-6.945-84.041 7.524-48.106.579-9.273 2.605.107 1.326-3.875 2.436-6.665 67.722 4.057z"/></g><path d="M575.217 233.827l.103-.145c5.509-7.724-2.777-26.284-4.027-28.974l5.264-1.711-1.185-10.089-.562-4.498 4.023-4.029.012-.1 2.315-20.286 3.366-13.473a29.61 29.61 0 0 0-.313-15.472 29.58 29.58 0 0 0-8.071-13.195l-7.782-7.347-9.456-14.011h-15.25l-5.229 9.89a22.22 22.22 0 0 0-12.71 8.242c-3.143 4.153-4.731 9.277-4.488 14.482l1.185 25.938-4.639 32.295-.003 5.845-5.221 5.81 1.14 5.708-3.974 1.705-1.754 8.198c-.726.959-5.519 7.358-5.519 9.107 0 .263.194.517.609.799 3.266 2.214 21.318 6.729 29.308 3.527 8.51-3.407 42.341 1.705 42.682 1.757l.176.027z" class="F"/><path d="M442.601 405.226a.77.77 0 0 0 .224.546c.144.145.34.227.545.228h182.178c.205 0 .402-.082.547-.227s.226-.342.226-.547-.081-.403-.226-.548-.342-.227-.547-.227H443.374a.77.77 0 0 0-.773.77v.005z" fill="#ccc"/><path d="M549.309 95.974c11.154 0 20.197-9.054 20.197-20.224s-9.043-20.224-20.197-20.224-20.197 9.055-20.197 20.224 9.042 20.224 20.197 20.224z" class="E"/><path d="M547.374 96.301c3.128-.032 6.247-.331 9.324-.895 3.046-.703 9.767-5.907 11.599-8.981 1.361-2.284 2.178-5.817 2.623-8.379a24.62 24.62 0 0 0-.34-10.211 24.59 24.59 0 0 0-4.456-9.191 7.76 7.76 0 0 0-3.201-2.596 3.88 3.88 0 0 0-.348-.107c-1.857-.438-3.541-1.422-4.835-2.826-.252-.284-.523-.55-.813-.795a11.78 11.78 0 0 0-4.981-2.345c-2.943-.708-7.153.179-12.513 2.639-2.693 1.236-5.682.891-7.986.453a.75.75 0 0 0-.699.26 5.29 5.29 0 0 1-3.56 1.529c-.818.057-1.647 1.215-2.648 2.722-.227.342-.491.742-.684.985l-.038-.458-.45.523c-.707.822-1.195 1.811-1.419 2.873s-.174 2.163.142 3.202.89 1.979 1.668 2.736a6.42 6.42 0 0 0 2.778 1.59 12.51 12.51 0 0 0 2.529.337c.517.033 1.051.067 1.564.143 1.649.294 3.193 1.011 4.483 2.081s2.279 2.456 2.874 4.024a2.54 2.54 0 0 0 .647.95 2.53 2.53 0 0 0 2.148.631c.382-.067.744-.22 1.058-.449a4.18 4.18 0 0 1 1.799-.863c.661-.138 1.345-.114 1.995.07.564.296 1.01.777 1.263 1.362.305.652.798 1.198 1.414 1.569 2.103 1.018 2.369 5.76 1.725 9.736-.62 3.832-1.969 6.628-3.28 6.798-1.01.131-1.124.206-1.192.387l-.062.162.118.147a4.13 4.13 0 0 0 1.754.189h0z" class="C"/><path d="M325.412 200.543c22.18 0 40.16-18.004 40.16-40.213s-17.98-40.213-40.16-40.213-40.16 18.004-40.16 40.213 17.981 40.213 40.16 40.213z" class="G"/><path d="M542.722 154.346l-13.247-8.483c-8.436 5.842-19.836 26.424-19.836 26.424l-28.852 26.691a6.94 6.94 0 0 0-3.266 1.508 6.95 6.95 0 0 0-2.075 2.941 6.96 6.96 0 0 0 1.183 6.855c.781.938 1.795 1.653 2.94 2.074s2.381.531 3.582.322a6.93 6.93 0 0 0 3.262-1.515 6.95 6.95 0 0 0 2.068-2.947l40.211-28.05 14.03-25.82z" class="E"/><path d="M541.459 157.788l8.823-21.204-3.191-11.717a12.78 12.78 0 0 0-3.65-5.989 12.76 12.76 0 0 0-6.256-3.158h0a12.72 12.72 0 0 0-9.172 1.799 12.75 12.75 0 0 0-5.475 7.584c-2.417 9.5-4.273 21.849.608 26.736l.05.049 18.263 5.9z" class="F"/><path d="M27.66 393.731c-17.27-8.876-29.8-26.029-27.181-44.36 15.326 13.254 36.517 21.056 58.631 21.588 8.613.207 18.285-.364 24.389 4.673 3.798 3.134 5.403 7.97 5.474 12.741s-1.235 9.557-2.533 14.279l.313 1.139c-20.628.659-41.823-1.183-59.094-10.06z" class="I"/><g class="B"><path d="M.913 349.339c6.362 13.466 17.77 24.882 32.177 31.81a35.1 35.1 0 0 0 10.017 3.296c3.553.486 7.171.129 10.561-1.043 3.212-1.04 6.389-2.427 9.771-2.772 1.656-.178 3.331-.02 4.925.465a12.38 12.38 0 0 1 4.351 2.358c3.035 2.522 4.785 5.934 6.362 9.333 1.75 3.774 3.498 7.722 7.075 10.37.433.321-.204.939-.637.619-6.224-4.606-6.89-12.599-11.777-18.094-2.28-2.564-5.498-4.472-9.437-4.307-3.445.145-6.723 1.572-9.967 2.65a24.52 24.52 0 0 1-10.312 1.36c-3.519-.424-6.947-1.413-10.152-2.931-6.972-3.169-13.382-7.451-18.982-12.679-6.188-5.713-11.23-12.556-14.853-20.163-.22-.465.659-.734.878-.272h0z"/><path d="M28.254 379.126c-3.786 4.324-10.449 5.786-15.561 3.439-.504-.231-.063-.967.441-.735a12.7 12.7 0 0 0 7.752.717c2.596-.579 4.944-1.957 6.717-3.942.372-.425 1.02.098.65.521h0zm23.847 4.989a18.52 18.52 0 0 0-2.36-7.379 18.49 18.49 0 0 0-5.172-5.763c-.432-.322.205-.94.637-.618 2.193 1.6 4.023 3.648 5.368 6.008a19.25 19.25 0 0 1 2.437 7.683c.046.515-.864.582-.91.069h0zM9.758 363.532a6.26 6.26 0 0 0 2.007-2.419 6.25 6.25 0 0 0 .577-3.092c-.054-.514.856-.579.91-.069a7.01 7.01 0 0 1-.641 3.415 7 7 0 0 1-2.202 2.686c-.086.079-.196.128-.313.136a.52.52 0 0 1-.33-.087.38.38 0 0 1-.099-.127.37.37 0 0 1-.004-.314.36.36 0 0 1 .096-.129h0z"/></g><path d="M59.56 312.314l.139.961a69.53 69.53 0 0 0 3.029 12.597 29.79 29.79 0 0 0 .324.954c3.552 9.921 9.145 18.985 16.416 26.605a79.08 79.08 0 0 0 9.599 8.57c4.776 3.618 10.308 7.179 13.253 11.941.312.492.59 1.005.83 1.535l-14.823 27.781c-.068.05-.13.103-.198.154l-.537 1.13-.574-.379c-.111-.071-.218-.148-.328-.219-.073-.049-.145-.099-.214-.14a1.43 1.43 0 0 1-.066-.046c-.069-.041-.128-.086-.19-.124l-3.242-2.225c-8.193-5.747-15.856-12.179-22.087-19.517-.187-.221-.382-.444-.562-.677-2.768-3.297-5.229-6.841-7.351-10.587-1.143-2.037-2.167-4.139-3.067-6.294-2.309-5.569-3.594-11.509-3.792-17.535-.405-12.071 3.558-24.414 12.735-33.775l.709-.71z" class="I"/><g class="B"><path d="M59.911 312.518c-4.352 14.776-3.513 30.533 2.634 44.112a27.61 27.61 0 0 0 5.307 8.158 18.61 18.61 0 0 0 8.662 4.79c3.125.847 6.46 1.382 9.242 2.907a9.84 9.84 0 0 1 3.417 3.071 9.86 9.86 0 0 1 1.652 4.29c.573 3.758-.426 7.576-1.546 11.29-1.244 4.124-2.609 8.394-1.713 12.548.109.503-.791.683-.9.18-1.559-7.227 3.366-14.328 3.417-21.588.023-3.387-1.104-6.725-4.183-8.7-2.693-1.728-6.131-2.283-9.306-3.115a20.17 20.17 0 0 1-8.69-4.389c-2.371-2.257-4.29-4.946-5.656-7.922-3.139-6.563-5.065-13.64-5.687-20.889-.755-8.412.095-16.891 2.505-24.985.15-.511.995-.265.845.242h0z"/><path d="M60.276 352.328c-5.788 1.615-11.799-.728-14.055-5.452-.222-.466.609-.85.831-.384 2.113 4.426 7.677 6.557 13.087 5.047.569-.159.702.631.136.789zm14.573 17.011a19.65 19.65 0 0 0 3.177-7.231 19.66 19.66 0 0 0 .074-7.9c-.107-.504.793-.684.9-.181a20.47 20.47 0 0 1-.095 8.223 20.45 20.45 0 0 1-3.323 7.519c-.315.46-1.045.027-.732-.43h0zm-17.914-40.098c1.129-.092 2.224-.432 3.208-.995a7.71 7.71 0 0 0 2.48-2.267c.308-.463 1.039-.03.732.43a8.66 8.66 0 0 1-2.744 2.503 8.64 8.64 0 0 1-3.54 1.118c-.247.021-.475-.073-.518-.305a.45.45 0 0 1 .382-.484h0z"/></g><g class="H"><path d="M111.807 173.082l1.301 12.083-.765 15.843 35.046-4.169 3.293-23.757-4.196.041-34.679-.041zM93.63 392.443h7.663l3.647-29.594H93.63v29.594z"/></g><path d="M91.129 387.188l12.241-.732v5.252l11.639 8.048a3.29 3.29 0 0 1 1.235 1.63c.228.662.239 1.378.031 2.046a3.28 3.28 0 0 1-1.186 1.666 3.27 3.27 0 0 1-1.942.638H98.573l-2.512-5.194-.981 5.194h-5.495l1.543-18.548z" class="C"/><path d="M136.67 392.443h7.662l3.646-29.594H136.67v29.594z" class="H"/><g class="C"><path d="M134.169 387.188l12.241-.732v5.252l11.639 8.048a3.29 3.29 0 0 1 1.235 1.63c.228.662.239 1.378.031 2.046a3.28 3.28 0 0 1-1.186 1.666 3.27 3.27 0 0 1-1.942.638h-14.574l-2.512-5.194-.981 5.194h-5.495l1.544-18.548zm-43.845-20.265h.083l1.474-48.119a12.59 12.59 0 0 1 .165-11.89l.211-.382-.547-2.539c-.703-3.262-.38-6.662.923-9.734l1.375-44.885c-4.911-31.872 18.495-52.658 18.495-52.658h35.062l7.528 25.897c4.976 48.548 4.073 95.855-3.824 141.689l.216.109c.775.268 1.107 1.343.742 2.402s-1.289 1.699-2.064 1.431l-18.517-.645c-.775-.268-1.108-1.343-.743-2.402s1.289-1.699 2.065-1.431l1.259.638-2.685-46.433.298-8.481-.614-9.622-2.839-43.278-10.743 53.22-10.974 57.648a2.02 2.02 0 0 1 .527 2.228c-.147.382-.406.709-.744.94a2.02 2.02 0 0 1-1.144.352H90.324c-.266 0-.53-.052-.776-.153a2.02 2.02 0 0 1-.658-.44c-.188-.188-.338-.412-.44-.658a2.03 2.03 0 0 1-.154-.777c0-.266.052-.53.154-.777s.251-.47.44-.658a2.04 2.04 0 0 1 .658-.439c.246-.102.51-.154.776-.153h0z"/></g><path d="M117.927 111.255c10.387 0 18.807-8.431 18.807-18.832s-8.42-18.832-18.807-18.832-18.806 8.431-18.806 18.832 8.42 18.832 18.807 18.832z" class="H"/><path d="M35.518 179.424a61.32 61.32 0 0 1 10.745-16.784 41.47 41.47 0 0 0-6.283 20.09c1.371.858 2.806 1.609 4.291 2.248 4.464 1.875 9.224 2.945 14.06 3.163a61.46 61.46 0 0 1 13.173-23.452c-4.373 6.983-6.572 15.111-6.317 23.349 5.394-.467 10.709-1.607 15.821-3.395 7.675-2.644 15.125-6.592 20.432-12.733 5.744-6.647 8.576-15.418 9.49-24.162.914-8.737.054-17.556-.812-26.3-.409-4.167 3.056-8.963 2.647-13.13h-.273c-1.822-2.5-3.677-5.062-4.571-8.027-.887-2.958-.655-6.448 1.385-8.778 1.143-1.217 2.585-2.112 4.182-2.596.15-.191.314-.376.484-.56a38.9 38.9 0 0 1 10.745-8.047c-2.899 2.193-4.837 4.672-5.737 7.234l7.531-1.653c.839-.891 1.723-1.739 2.647-2.541 1.344-1.168 1.788-1.257 3.391-2.357-1.294 1.14-2.298 2.573-2.927 4.181 3.227-.813 6.454-2.036 8.132-4.816 2.784-4.597-.525-10.8-5.144-13.546a18.38 18.38 0 0 0-11.066-2.272c-3.835.423-7.441 2.042-10.307 4.629-6.679-4.925-16.189-4.843-23.618-1.161a34.55 34.55 0 0 0-12.321 10.732 48.13 48.13 0 0 1 5.581-.389 17.1 17.1 0 0 0-7.306 2.896c-.964 1.498-1.847 3.046-2.647 4.638a63 63 0 0 0-1.487 3.177c-2.859 6.517-4.721 13.457-6.652 20.316-2.251 7.992-4.666 16.039-8.882 23.192-6.464 10.875-16.662 19.022-28.687 22.918-1.003 9.038 3.404 17.878 10.302 23.937z" class="C"/><path d="M136.866 123.848l-3.65-1.372-4.603-7.452-16.395 1.341-3.985 7.991-9.6 7.34 4.198 22.14 6.523 26.893 43.661-5.465-.046-20.245s7.89-15.994-4.855-21.987l-11.248-9.184z" class="G"/><path d="M204.166 194.071c-.848.341-1.76.491-2.672.441s-1.801-.301-2.606-.733-1.506-1.035-2.053-1.767a6.26 6.26 0 0 1-1.113-2.472l-48.682-29.496 8.898-10.281 45.055 32.227c1.523-.213 3.071.14 4.351.993a6.29 6.29 0 0 1 2.594 3.636 6.3 6.3 0 0 1-.472 4.444c-.695 1.373-1.87 2.444-3.3 3.008h0z" class="H"/><path d="M130.818 146.056s-2.326 2.344 3.511 6.198c4.674 3.086 25.52 18.334 32.909 20.746-.092 1.087.179 2.173.771 3.089s1.472 1.608 2.5 1.967l6.691-14.722c-1.448-3.366-3.765-2.587-4.984-1.824l-8.08-6.085-19.843-19.84-11.823 8.747-1.652 1.724z" class="G"/><path d="M111.356 69.681a26.23 26.23 0 0 0-4.267 11.155 26.25 26.25 0 0 0 1.116 11.893" fill="#fd6584"/><path d="M15.944 405.226a.77.77 0 0 0 .058.296c.039.094.096.18.168.252s.157.129.251.168a.77.77 0 0 0 .296.058h182.174c.205 0 .402-.082.547-.227s.227-.342.227-.547-.082-.403-.227-.548-.342-.227-.547-.227H16.717a.79.79 0 0 0-.296.058c-.094.039-.179.096-.251.168s-.129.158-.168.252-.059.195-.058.297h0z" fill="#ccc"/><path d="M85.352 229.198a1.82 1.82 0 0 0-1.034.928c-.209.435-.236.934-.078 1.389l25.381 73.249a1.82 1.82 0 0 0 .927 1.036c.434.209.933.237 1.387.078l147.681-51.884a1.82 1.82 0 0 0 1.035-.929c.208-.434.236-.934.077-1.389l-25.381-73.249a1.82 1.82 0 0 0-2.314-1.113L85.352 229.198z" class="D"/><path d="M122.732 295.306c-2.906-.001-5.741-.903-8.115-2.582a14.09 14.09 0 0 1-5.141-6.796l-13.938-39.489a14.08 14.08 0 0 1 .569-10.749c1.606-3.366 4.481-5.956 7.993-7.199l74.639-26.416a55.87 55.87 0 0 1 42.692 2.29c13.367 6.394 23.654 17.836 28.606 31.815 1.242 3.517 1.037 7.384-.568 10.75a14.05 14.05 0 0 1-7.994 7.198l-.108-.307.108.307L127.4 294.502a14.01 14.01 0 0 1-4.668.804h0z" class="B"/><g class="D"><path d="M221.713 217.465l-66.833 23.48c-.942.331-2.109-.553-2.607-1.974s-.138-2.842.804-3.172l66.833-23.48c.941-.331 2.108.553 2.606 1.974s.139 2.843-.803 3.172zm5.169 14.754l-66.833 23.48c-.942.331-2.109-.553-2.607-1.974s-.138-2.842.804-3.173l66.833-23.48c.941-.331 2.108.553 2.606 1.975s.139 2.841-.803 3.172z"/></g><path d="M145.837 248.972c.717 2.025 1.066 4.163 1.029 6.311a17.46 17.46 0 0 1-.29 2.93c-.57 3.123-1.953 6.041-4.01 8.457a18.01 18.01 0 0 1-7.704 5.304 17.98 17.98 0 0 1-9.321.721c-3.116-.585-6.023-1.984-8.426-4.055l-.709-.644a18.03 18.03 0 0 1-4.421-6.739 18.06 18.06 0 0 1-1.044-7.995c.259-2.709 1.127-5.325 2.54-7.651a18.03 18.03 0 0 1 5.617-5.777c2.284-1.476 4.872-2.415 7.571-2.747a17.98 17.98 0 0 1 8.009.832c2.572.879 4.913 2.33 6.845 4.245a18.03 18.03 0 0 1 4.314 6.808h0z" fill="#e4e4e4"/><path d="M129.612 257.733c1.901 0 3.442-1.543 3.442-3.446s-1.541-3.446-3.442-3.446-3.442 1.543-3.442 3.446 1.541 3.446 3.442 3.446z" fill="#fd6584"/><path d="M116.406 267.996c.883-2.053 1.928-5.186 4.347-4.045 1.195.518 3.335 2.095 4.204.261l6.805-14.263c.129-.266.309-.503.531-.698a2.23 2.23 0 0 1 .761-.438c.28-.093.576-.13.871-.107a2.23 2.23 0 0 1 .844.239l12.097 6.338a17.46 17.46 0 0 1-.29 2.93l-29.461 10.427-.709-.644z" class="F"/><path d="M119.918 225.874c-.852-.331-1.62-.846-2.251-1.507a6.25 6.25 0 0 1-1.403-2.318 6.26 6.26 0 0 1 .583-5.261l-15.401-54.85 13.512-1.414 10.89 54.36a6.29 6.29 0 0 1 2.498 3.703 6.3 6.3 0 0 1-.588 4.43c-.731 1.354-1.933 2.393-3.378 2.92a6.27 6.27 0 0 1-4.462-.063h0z" class="H"/><g class="G"><path d="M99.167 131.828s-3.298.119-1.668 6.928c1.305 5.451 6.099 39.645 9.847 46.463a4.91 4.91 0 0 0-1.546 2.783c-.193 1.073-.023 2.181.482 3.147l14.933-6.167c1.241-3.448.28-6.579-1.13-6.856l-1.745-9.972-2.571-33.455-14.219-2.999-2.383.128zm134.526 144.317l-20.653.857c-.441.019-.881-.062-1.286-.237a2.92 2.92 0 0 1-1.055-.775c-.285-.326-.492-.712-.607-1.13s-.133-.856-.054-1.282c1.585-8.654 1.123-17.559-1.349-26.002a2.91 2.91 0 0 1 1.435-3.402c8.46-4.401 16.386-4.624 23.558-.664a2.95 2.95 0 0 1 1.477 1.992c1.866 9.213 2.314 18.657 1.327 28.006-.069.703-.389 1.358-.903 1.843s-1.185.767-1.89.794z"/></g><g class="B"><path d="M232.819 262.61l-15.791.655c-.195.008-.389-.022-.572-.089s-.351-.169-.495-.302a1.49 1.49 0 0 1-.341-.468c-.082-.177-.128-.368-.136-.563s.022-.389.089-.572.17-.352.302-.495a1.5 1.5 0 0 1 .467-.342 1.48 1.48 0 0 1 .563-.136l15.792-.655c.194-.008.388.023.571.09s.351.169.494.301a1.49 1.49 0 0 1 .341.468c.082.177.128.369.136.563a1.49 1.49 0 0 1-.089.573c-.067.183-.169.351-.301.494a1.49 1.49 0 0 1-.468.342 1.48 1.48 0 0 1-.562.136h0zm-.215-5.202l-15.792.655a1.48 1.48 0 0 1-1.065-.391c-.289-.267-.461-.638-.477-1.031a1.49 1.49 0 0 1 1.42-1.545l15.791-.655a1.49 1.49 0 0 1 1.066.391c.289.267.461.638.477 1.031a1.49 1.49 0 0 1-.39 1.067 1.48 1.48 0 0 1-1.03.478h0z"/></g><path d="M611.415 114.371l-20.495-2.692a2.92 2.92 0 0 1-1.228-.453 2.93 2.93 0 0 1-.906-.944 2.87 2.87 0 0 1-.24-2.49 56.39 56.39 0 0 0 3.111-25.85 2.91 2.91 0 0 1 1.995-3.106c9.086-2.888 16.934-1.751 23.324 3.379.335.266.609.602.801.984s.3.803.314 1.231a92.24 92.24 0 0 1-3.475 27.82 2.92 2.92 0 0 1-1.203 1.662c-.589.39-1.299.553-1.998.459h0z" class="G"/><g class="B"><path d="M612.865 100.885l-15.671-2.058c-.193-.025-.379-.089-.548-.186a1.47 1.47 0 0 1-.691-.901c-.051-.188-.064-.385-.038-.578s.088-.38.185-.549a1.49 1.49 0 0 1 .382-.436 1.48 1.48 0 0 1 1.095-.295l15.671 2.058a1.48 1.48 0 0 1 1.277 1.665c-.051.39-.255.744-.566.984s-.706.346-1.096.294h0zm.676-5.162l-15.671-2.058a1.49 1.49 0 0 1-.549-.185c-.169-.097-.317-.227-.436-.382a1.49 1.49 0 0 1-.257-.52c-.05-.189-.063-.385-.038-.579a1.49 1.49 0 0 1 .186-.549c.097-.169.227-.317.382-.436a1.48 1.48 0 0 1 1.098-.293l15.67 2.058a1.48 1.48 0 0 1 .549.185c.169.097.317.227.436.382s.207.331.257.52a1.49 1.49 0 0 1 .038.579 1.47 1.47 0 0 1-.186.549c-.097.169-.227.317-.382.436a1.48 1.48 0 0 1-1.097.293zm-275.13 58.424h-6.824v-6.833c0-1.64-.651-3.213-1.809-4.372a6.17 6.17 0 0 0-8.732 0c-1.158 1.159-1.808 2.732-1.808 4.372v6.833h-6.825c-1.637 0-3.208.652-4.366 1.811s-1.808 2.732-1.808 4.372.65 3.212 1.808 4.372a6.17 6.17 0 0 0 4.366 1.811h6.825v6.833c0 1.64.65 3.213 1.808 4.372a6.17 6.17 0 0 0 8.732 0c1.158-1.159 1.809-2.732 1.809-4.372v-6.833h6.824a6.17 6.17 0 0 0 4.366-1.811 6.19 6.19 0 0 0 0-8.744 6.17 6.17 0 0 0-4.366-1.811h0z"/></g><g class="F"><path d="M559.416 27.682c3.593 0 6.507-2.917 6.507-6.516s-2.914-6.516-6.507-6.516-6.507 2.917-6.507 6.516 2.913 6.516 6.507 6.516zm-399.718 184.18c3.594 0 6.507-2.917 6.507-6.516s-2.913-6.515-6.507-6.515-6.507 2.917-6.507 6.515 2.913 6.516 6.507 6.516z"/></g></g><defs><clipPath id="A"><path d="M0 0h643v406H0z" class="B"/></clipPath></defs></svg>